<svg xmlns="http://www.w3.org/2000/svg" width="247.075" height="118.485" data-name="logo vertical" viewBox="0 0 247.075 118.485"><defs><clipPath id="a"><path fill="none" d="M0 0h247.075v118.485H0z" data-name="Rectangle 3"/></clipPath></defs><g clip-path="url(#a)" data-name="Groupe 3"><path fill="#2e1f00" d="M157.446 33.448A33.448 33.448 0 1 1 123.998 0a33.45 33.45 0 0 1 33.448 33.448" data-name="Tracé 37"/><path fill="#e95700" d="M208.976 80.305h-1.505c-.225 0-.321-.1-.321-.321v-1.509c0-.225.1-.321.321-.321h1.505c.225 0 .321.1.321.321v1.514c0 .225-.1.321-.321.321" data-name="Tracé 38"/><path fill="#2e1f00" d="M2.441 87.38c0 1.445 1 2.505 3.051 3.469a26 26 0 0 1 4.239 2.248 5.61 5.61 0 0 1 2.248 4.721c0 3.147-2.184 5.267-5.62 5.267H4.978C1.927 103.089 0 101.289 0 100.289c0-.129.064-.193.193-.257l1.349-.707a.35.35 0 0 1 .16-.032c.128 0 .161.064.257.161.9.931 1.542 1.8 3.019 1.8h1.381a3.407 3.407 0 0 0 3.469-3.437c0-2.152-1.638-2.987-4.368-4.3-3.308-1.606-5.2-2.762-5.2-6.038 0-3.147 2.184-5.267 5.588-5.267h.514c3.019 0 5.01 1.8 5.01 2.826 0 .1-.1.16-.225.225l-1.349.674a.35.35 0 0 1-.161.032.24.24 0 0 1-.225-.128c-.9-.931-1.574-1.766-3.051-1.766h-.516a3.325 3.325 0 0 0-3.4 3.308" data-name="Tracé 39"/><path fill="#2e1f00" d="M28.943 102.764H18.409c-.225 0-.321-.1-.321-.321v-19.56c0-.225.1-.321.321-.321h10.534c.225 0 .321.1.321.321v1.188c0 .225-.1.321-.321.321h-8.382c-.225 0-.321.1-.321.321v6.552c0 .225.1.321.321.321h6.871c.225 0 .321.1.321.321v1.188c0 .225-.1.321-.321.321h-6.871c-.225 0-.321.1-.321.321v6.878c0 .225.1.321.321.321h8.382a.288.288 0 0 1 .321.321v1.188c0 .225-.1.321-.321.321m-5.427-22.131-.835.064c-.225 0-.353-.1-.353-.225a.5.5 0 0 1 .1-.289l2.248-3.34.256-.13h2.184c.225 0 .385.128.385.257a.44.44 0 0 1-.16.289Z" data-name="Tracé 40"/><path fill="#2e1f00" d="M42.603 102.763h-6.23c-.225 0-.321-.1-.321-.321V82.883c0-.225.1-.321.321-.321h6.23a5.227 5.227 0 0 1 5.621 5.556v.353a4.44 4.44 0 0 1-1.06 2.665c-.675.867-1.574 1.092-1.574 1.349 0 .16.1.193.193.289 1.445 1.092 2.441 1.991 2.441 3.95v.482c0 3.4-2.184 5.556-5.621 5.556m3.469-14.967a3.42 3.42 0 0 0-3.469-3.4h-4.079c-.225 0-.321.1-.321.321v6.552c0 .225.1.321.321.321h4.079a3.414 3.414 0 0 0 3.469-3.468Zm0 9.025a3.42 3.42 0 0 0-3.469-3.4h-4.079c-.225 0-.321.1-.321.321v6.873c0 .225.1.321.321.321h4.079a3.407 3.407 0 0 0 3.469-3.436Z" data-name="Tracé 41"/><path fill="#2e1f00" d="M66.475 102.474c0 .193-.128.289-.353.289h-1.638c-.193 0-.289-.064-.321-.225l-1.252-4.432c-.032-.161-.128-.193-.321-.193h-6.038c-.193 0-.289.032-.321.193l-1.252 4.432a.29.29 0 0 1-.321.225H53.02c-.225 0-.353-.1-.353-.289 0-.032.032-.064.032-.129l5.942-19.559a.29.29 0 0 1 .321-.225h1.221a.31.31 0 0 1 .321.225l5.942 19.559c0 .064.032.1.032.129m-6.455-15.063c-.032-.129-.161-.546-.353-1.252h-.128c-.129.514-.257.931-.353 1.252l-2.28 8.254c0 .064-.032.1-.032.128 0 .193.128.289.353.289h4.625c.225 0 .353-.1.353-.289 0-.032-.032-.1-.032-.128Z" data-name="Tracé 42"/><path fill="#2e1f00" d="M73.316 87.38c0 1.445 1 2.505 3.051 3.469a26 26 0 0 1 4.239 2.248 5.61 5.61 0 0 1 2.248 4.721c0 3.147-2.184 5.267-5.62 5.267h-1.381c-3.051 0-4.978-1.8-4.978-2.794 0-.129.064-.193.193-.257l1.349-.707a.35.35 0 0 1 .16-.032c.128 0 .161.064.257.161.9.931 1.542 1.8 3.019 1.8h1.381a3.407 3.407 0 0 0 3.469-3.437c0-2.152-1.638-2.987-4.368-4.3-3.308-1.606-5.2-2.762-5.2-6.038 0-3.147 2.184-5.267 5.588-5.267h.514c3.019 0 5.01 1.8 5.01 2.826 0 .1-.1.16-.225.225l-1.349.674a.35.35 0 0 1-.161.032.24.24 0 0 1-.225-.128c-.9-.931-1.574-1.766-3.051-1.766h-.514a3.325 3.325 0 0 0-3.4 3.308" data-name="Tracé 43"/><path fill="#2e1f00" d="M97.706 84.393H93.82c-.225 0-.321.1-.321.321v17.728c0 .225-.1.321-.321.321h-1.509c-.225 0-.321-.1-.321-.321V84.714c0-.225-.1-.321-.321-.321h-3.886c-.225 0-.321-.1-.321-.321v-1.188c0-.225.1-.321.321-.321h10.566c.225 0 .321.1.321.321v1.188c0 .225-.1.321-.321.321" data-name="Tracé 44"/><path fill="#2e1f00" d="M105.455 102.763h-1.51c-.225 0-.321-.1-.321-.321V82.883c0-.225.1-.321.321-.321h1.509c.225 0 .321.1.321.321v19.559c0 .225-.1.321-.321.321" data-name="Tracé 45"/><path fill="#2e1f00" d="M123.443 102.763h-10.534c-.225 0-.321-.1-.321-.321V82.883c0-.225.1-.321.321-.321h10.534c.225 0 .321.1.321.321v1.188c0 .225-.1.321-.321.321h-8.382c-.225 0-.321.1-.321.321v6.552c0 .225.1.321.321.321h6.873c.225 0 .321.1.321.321v1.188c0 .225-.1.321-.321.321h-6.873c-.225 0-.321.1-.321.321v6.873c0 .225.1.321.321.321h8.382a.288.288 0 0 1 .321.321v1.188c0 .225-.1.321-.321.321" data-name="Tracé 46"/><path fill="#2e1f00" d="M142.916 102.763h-1.413l-.289-.161-8.611-15.833h-.064l.16 15.673c0 .225-.1.321-.321.321h-1.509c-.225 0-.321-.1-.321-.321V82.883c0-.225.1-.321.321-.321h1.381l.289.16 8.639 15.93h.064l-.192-15.769c0-.225.1-.321.321-.321h1.542c.225 0 .321.1.321.321v19.559c0 .225-.1.321-.321.321" data-name="Tracé 47"/><path fill="#2e1f00" d="M56.22 118.36h-3.95c-.084 0-.12-.036-.12-.12v-7.335c0-.084.036-.12.12-.12h.566c.084 0 .12.036.12.12v6.655c0 .084.036.12.12.12h3.143a.108.108 0 0 1 .12.12v.446c0 .084-.036.12-.12.12" data-name="Tracé 48"/><path fill="#2e1f00" d="M63.998 118.261c0 .072-.048.108-.132.108h-.614c-.072 0-.108-.024-.12-.084l-.47-1.662c-.012-.06-.048-.072-.12-.072h-2.265c-.072 0-.109.012-.12.072l-.47 1.662a.11.11 0 0 1-.12.084h-.614c-.085 0-.133-.036-.133-.108 0-.012.012-.024.012-.048l2.228-7.334a.11.11 0 0 1 .12-.085h.458a.116.116 0 0 1 .12.085l2.229 7.334c0 .024.012.036.012.048m-2.42-5.649c-.013-.048-.061-.2-.132-.47h-.049c-.048.193-.1.349-.132.47l-.855 3.1c0 .024-.012.036-.012.048 0 .072.048.108.132.108h1.735c.084 0 .132-.036.132-.108 0-.012-.012-.036-.012-.048Z" data-name="Tracé 49"/><path fill="#2e1f00" d="M75.366 118.36h-.53l-.108-.06-3.228-5.938h-.024l.061 5.878c0 .084-.036.12-.121.12h-.566c-.084 0-.12-.036-.12-.12v-7.335c0-.084.036-.12.12-.12h.518l.108.06 3.24 5.974h.024l-.072-5.914c0-.084.036-.12.12-.12h.578c.084 0 .12.036.12.12v7.335c0 .084-.036.12-.12.12" data-name="Tracé 50"/><path fill="#2e1f00" d="M83.508 118.261c0 .072-.048.108-.132.108h-.614c-.072 0-.109-.024-.121-.084l-.47-1.662c-.012-.06-.048-.072-.12-.072h-2.264c-.072 0-.108.012-.12.072l-.47 1.662a.11.11 0 0 1-.121.084h-.614c-.084 0-.132-.036-.132-.108 0-.012.012-.024.012-.048l2.228-7.334a.11.11 0 0 1 .12-.085h.458a.116.116 0 0 1 .12.085l2.228 7.334c0 .024.012.036.012.048m-2.421-5.649c-.012-.048-.06-.2-.133-.47h-.048c-.048.193-.1.349-.132.47l-.855 3.1c0 .024-.012.036-.012.048 0 .072.048.108.132.108h1.735c.084 0 .132-.036.132-.108 0-.012-.012-.036-.012-.048Z" data-name="Tracé 51"/><path fill="#2e1f00" d="M89.169 111.476h-1.46c-.084 0-.12.036-.12.12v6.648c0 .084-.036.12-.12.12h-.566c-.084 0-.12-.036-.12-.12v-6.648c0-.084-.036-.12-.12-.12h-1.457c-.084 0-.12-.036-.12-.12v-.446c0-.084.036-.12.12-.12h3.963c.084 0 .12.036.12.12v.446c0 .084-.036.12-.12.12" data-name="Tracé 52"/><path fill="#2e1f00" d="M94.598 118.485h-.373a1.918 1.918 0 0 1-2.1-1.975v-5.6c0-.084.036-.12.12-.12h.578c.084 0 .12.036.12.12v5.6a1.27 1.27 0 0 0 1.277 1.289h.373a1.3 1.3 0 0 0 1.289-1.289v-5.6c0-.084.036-.12.12-.12h.578c.084 0 .12.036.12.12v5.6a1.928 1.928 0 0 1-2.108 1.975" data-name="Tracé 53"/><path fill="#2e1f00" d="M104.81 118.268c0 .06-.048.1-.12.1h-.65c-.06-.024-.1-.048-.109-.084l-1.156-3.348a.17.17 0 0 0-.1-.072h-1.518c-.084 0-.12.036-.12.12v3.264c0 .084-.036.12-.12.12h-.566c-.084 0-.12-.036-.12-.12v-7.335c0-.084.036-.12.12-.12h2.336a1.96 1.96 0 0 1 2.108 2.084v.133a1.86 1.86 0 0 1-.723 1.325c-.265.217-.494.241-.494.361 0 .012.012.024.012.036l1.2 3.481a.1.1 0 0 1 .012.06m-.819-5.516a1.283 1.283 0 0 0-1.3-1.277h-1.53c-.084 0-.12.036-.12.12v2.457c0 .084.036.12.12.12h1.53a1.28 1.28 0 0 0 1.3-1.3Z" data-name="Tracé 54"/><path fill="#2e1f00" d="M112.217 118.36h-3.95c-.084 0-.12-.036-.12-.12v-7.335c0-.084.036-.12.12-.12h3.95c.084 0 .12.036.12.12v.446c0 .084-.036.12-.12.12h-3.143c-.084 0-.12.036-.12.12v2.457c0 .084.036.12.12.12h2.577c.084 0 .12.036.12.12v.446c0 .084-.036.12-.12.12h-2.577c-.084 0-.12.036-.12.12v2.586c0 .084.036.12.12.12h3.143a.108.108 0 0 1 .12.12v.446c0 .084-.036.12-.12.12" data-name="Tracé 55"/><path fill="#2e1f00" d="M122.007 118.36h-2.337c-.084 0-.12-.036-.12-.12v-7.335c0-.084.036-.12.12-.12h2.336a1.96 1.96 0 0 1 2.108 2.084v3.391a1.967 1.967 0 0 1-2.108 2.108m1.3-5.613a1.283 1.283 0 0 0-1.3-1.277h-1.526c-.084 0-.12.036-.12.12v5.962c0 .084.036.12.12.12h1.53a1.28 1.28 0 0 0 1.3-1.288Z" data-name="Tracé 56"/><path fill="#2e1f00" d="M129.717 118.485h-.373a1.918 1.918 0 0 1-2.1-1.975v-5.6c0-.084.036-.12.12-.12h.578c.084 0 .12.036.12.12v5.6a1.27 1.27 0 0 0 1.277 1.289h.373a1.3 1.3 0 0 0 1.289-1.289v-5.6c0-.084.036-.12.121-.12h.578c.084 0 .12.036.12.12v5.6a1.928 1.928 0 0 1-2.108 1.975" data-name="Tracé 57"/><path fill="#2e1f00" d="M143.361 117.426c0 .386-.735 1.06-1.867 1.06h-.373a1.918 1.918 0 0 1-2.1-1.975v-3.878a1.918 1.918 0 0 1 2.1-1.975h.373c1.108 0 1.879.65 1.879 1.048 0 .036-.036.072-.084.1l-.506.253a.13.13 0 0 1-.06.012c-.036 0-.048-.012-.084-.048-.361-.349-.626-.662-1.144-.662h-.373a1.255 1.255 0 0 0-1.277 1.277v3.878a1.27 1.27 0 0 0 1.277 1.289h.373a1.22 1.22 0 0 0 .783-.3c.265-.253.374-.433.446-.433a.13.13 0 0 1 .06.012l.506.253c.06.024.072.048.072.1" data-name="Tracé 58"/><path fill="#2e1f00" d="M151.214 118.36h-.578c-.084 0-.12-.036-.12-.12v-3.26c0-.084-.036-.12-.12-.12h-2.891c-.084 0-.12.036-.12.12v3.264c0 .084-.036.12-.121.12h-.566c-.084 0-.12-.036-.12-.12v-7.335c0-.084.036-.12.12-.12h.566c.084 0 .121.036.121.12v3.144c0 .084.036.12.12.12h2.891c.084 0 .12-.036.12-.12v-3.144c0-.084.036-.12.12-.12h.578c.084 0 .12.036.12.12v7.335c0 .084-.036.12-.12.12" data-name="Tracé 59"/><path fill="#2e1f00" d="M157.043 118.485h-.374a1.918 1.918 0 0 1-2.1-1.975v-3.878a1.918 1.918 0 0 1 2.1-1.975h.374a1.934 1.934 0 0 1 2.107 1.975v3.878a1.928 1.928 0 0 1-2.107 1.975m1.288-5.853a1.27 1.27 0 0 0-1.288-1.277h-.374a1.255 1.255 0 0 0-1.277 1.277v3.878a1.27 1.27 0 0 0 1.277 1.289h.374a1.3 1.3 0 0 0 1.288-1.289Z" data-name="Tracé 60"/><path fill="#2e1f00" d="M166.822 117.426c0 .386-.735 1.06-1.867 1.06h-.373a1.918 1.918 0 0 1-2.1-1.975v-3.878a1.918 1.918 0 0 1 2.1-1.975h.373c1.108 0 1.879.65 1.879 1.048 0 .036-.036.072-.084.1l-.506.253a.13.13 0 0 1-.06.012c-.036 0-.048-.012-.084-.048-.361-.349-.626-.662-1.144-.662h-.374a1.255 1.255 0 0 0-1.277 1.277v3.878a1.27 1.27 0 0 0 1.277 1.289h.373a1.22 1.22 0 0 0 .783-.3c.265-.253.374-.433.446-.433a.13.13 0 0 1 .06.012l.506.253c.06.024.072.048.072.1" data-name="Tracé 61"/><path fill="#2e1f00" d="M172.134 118.485h-.373a1.918 1.918 0 0 1-2.1-1.975v-3.878a1.918 1.918 0 0 1 2.1-1.975h.373a1.934 1.934 0 0 1 2.108 1.975v3.878a1.928 1.928 0 0 1-2.108 1.975m1.289-5.853a1.27 1.27 0 0 0-1.289-1.277h-.373a1.255 1.255 0 0 0-1.277 1.277v3.878a1.27 1.27 0 0 0 1.277 1.289h.373a1.3 1.3 0 0 0 1.289-1.289Z" data-name="Tracé 62"/><path fill="#2e1f00" d="M181.553 118.36h-3.95c-.084 0-.12-.036-.12-.12v-7.335c0-.084.036-.12.12-.12h.566c.084 0 .12.036.12.12v6.655c0 .084.036.12.12.12h3.143a.108.108 0 0 1 .12.12v.446c0 .084-.036.12-.12.12" data-name="Tracé 63"/><path fill="#2e1f00" d="M189.331 118.261c0 .072-.048.108-.132.108h-.615c-.072 0-.108-.024-.12-.084l-.47-1.662c-.012-.06-.048-.072-.12-.072h-2.264c-.072 0-.109.012-.12.072l-.47 1.662a.11.11 0 0 1-.12.084h-.614c-.084 0-.132-.036-.132-.108 0-.012.012-.024.012-.048l2.228-7.334a.11.11 0 0 1 .12-.085h.458a.116.116 0 0 1 .12.085l2.228 7.334c0 .024.012.036.012.048m-2.421-5.649c-.012-.048-.06-.2-.132-.47h-.048c-.048.193-.1.349-.132.47l-.855 3.1c0 .024-.012.036-.012.048 0 .072.048.108.132.108h1.735c.084 0 .132-.036.132-.108 0-.012-.012-.036-.012-.048Z" data-name="Tracé 64"/><path fill="#2e1f00" d="M194.99 111.476h-1.457c-.084 0-.12.036-.12.12v6.648c0 .084-.036.12-.12.12h-.566c-.084 0-.12-.036-.12-.12v-6.648c0-.084-.036-.12-.12-.12h-1.457c-.084 0-.12-.036-.12-.12v-.446c0-.084.036-.12.12-.12h3.962c.084 0 .12.036.12.12v.446c0 .084-.036.12-.12.12" data-name="Tracé 65"/><path fill="#fff" d="M127.227 18.804h-25.315a1.62 1.62 0 0 0-1.613 1.613v9.5a1.62 1.62 0 0 0 1.613 1.613h17.617a1.617 1.617 0 0 1 1.613 1.613v8.813a1.62 1.62 0 0 1-1.613 1.613h-13.146a1.62 1.62 0 0 1-1.613-1.613v-.386a1.62 1.62 0 0 1 1.613-1.613h9.019a1.62 1.62 0 0 0 1.613-1.613v-1.246a1.62 1.62 0 0 0-1.613-1.613h-13.49a1.62 1.62 0 0 0-1.613 1.613v9.329a1.62 1.62 0 0 0 1.613 1.613h22.089a1.62 1.62 0 0 0 1.613-1.613V24.888a1.62 1.62 0 0 1 1.613-1.613h13.92a1.62 1.62 0 0 1 1.613 1.613v8.985a1.617 1.617 0 0 1-1.613 1.613h-4.977a1.617 1.617 0 0 1-1.613-1.613v-3.008a1.62 1.62 0 0 0-1.613-1.613h-1.246a1.62 1.62 0 0 0-1.613 1.613v7.479a1.62 1.62 0 0 0 1.613 1.613h13.92a1.62 1.62 0 0 0 1.613-1.613V20.417a1.62 1.62 0 0 0-1.613-1.613Zm-6.084 6.642a1.62 1.62 0 0 1-1.613 1.613h-13.147a1.62 1.62 0 0 1-1.613-1.613v-.558a1.62 1.62 0 0 1 1.613-1.613h13.146a1.62 1.62 0 0 1 1.613 1.613Z" data-name="Tracé 66"/><path fill="#e95700" d="M162.229 82.534h-6.217c-.225 0-.321.1-.321.321v19.512c0 .225.1.321.321.321h.051a1.776 1.776 0 0 0 1.776-1.776v-7.23c0-.224.1-.32.321-.32h4.07a5.42 5.42 0 1 0 0-10.833m3.461 5.544a3.407 3.407 0 0 1-3.461 3.461h-2.615a1.776 1.776 0 0 0-1.776 1.776v-8.633c0-.224.1-.32.321-.32h4.07a3.413 3.413 0 0 1 3.461 3.4Z" data-name="Tracé 67"/><path fill="#e95700" d="M177.824 82.758a.31.31 0 0 0-.32-.224h-1.217a.29.29 0 0 0-.321.224l-5.929 19.518c0 .064-.032.1-.032.127 0 .193.128.289.352.289h1.635a.287.287 0 0 0 .32-.225l1.251-4.422c.032-.16.127-.193.32-.193h6.025c.193 0 .289.032.321.193l1.25 4.422c.032.16.128.225.321.225h1.634c.225 0 .353-.1.353-.289 0-.032-.032-.063-.032-.127Zm1.346 13.268h-4.614c-.225 0-.352-.1-.352-.289 0-.032.032-.064.032-.129l2.275-8.236c.1-.32.224-.737.353-1.25h.129c.191.705.32 1.122.352 1.25l2.147 8.236c0 .032.032.1.032.129 0 .193-.128.289-.353.289" data-name="Tracé 68"/><path fill="#e95700" d="M195.967 82.534h-6.217c-.225 0-.321.1-.321.321v19.512c0 .225.1.321.321.321h.053a1.775 1.775 0 0 0 1.773-1.73v-7.271c0-.224.1-.32.321-.32h4.07a5.42 5.42 0 1 0 0-10.833m3.461 5.544a3.407 3.407 0 0 1-3.461 3.461h-2.613a1.776 1.776 0 0 0-1.771 1.78v-8.637c0-.224.1-.32.321-.32h4.07a3.413 3.413 0 0 1 3.461 3.4Z" data-name="Tracé 69"/><path fill="#e95700" d="M209.297 100.977V82.854c0-.225-.1-.321-.321-.321h-1.505c-.225 0-.321.1-.321.321v19.513c0 .225.1.321.321.321h.054a1.774 1.774 0 0 0 1.772-1.715" data-name="Tracé 70"/><path fill="#e95700" d="M222.333 82.182h-.993c-3.4 0-5.576 2.115-5.576 5.255v10.319c0 3.142 2.179 5.257 5.576 5.257h.993c3.4 0 5.609-2.115 5.609-5.257V87.433c0-3.108-2.212-5.255-5.609-5.255m3.429 15.575a3.453 3.453 0 0 1-3.429 3.429h-.993a3.386 3.386 0 0 1-3.4-3.429v-10.32a3.34 3.34 0 0 1 3.4-3.4h.993a3.386 3.386 0 0 1 3.429 3.4Z" data-name="Tracé 71"/><path fill="#e95700" d="M246.754 82.533h-1.539c-.224 0-.32.1-.32.321l.193 15.736h-.064l-8.622-15.9-.288-.16h-1.378c-.225 0-.321.1-.321.321v19.516c0 .225.1.321.321.321h.035a1.776 1.776 0 0 0 1.776-1.776l-.146-14.185h.064l8.59 15.8.288.16h1.41c.225 0 .321-.1.321-.321V82.854c0-.225-.1-.321-.321-.321" data-name="Tracé 72"/></g></svg>